<?xml version="1.0" standalone="no"?>
<!DOCTYPE svg PUBLIC "-//W3C//DTD SVG 20010904//EN"
 "http://www.w3.org/TR/2001/REC-SVG-20010904/DTD/svg10.dtd">
<svg version="1.0" xmlns="http://www.w3.org/2000/svg"
 width="1350.000000pt" height="1350.000000pt" viewBox="0 0 1350.000000 1350.000000"
 preserveAspectRatio="xMidYMid meet">

<g transform="translate(0.000000,1350.000000) scale(0.100000,-0.100000)"
fill="#000000" stroke="none">
<path d="M6434 12732 l-310 -577 238 -3 238 -2 0 -750 0 -750 -22 -4 c-13 -3
-72 -7 -133 -11 -260 -14 -656 -95 -951 -196 -1170 -398 -2071 -1315 -2453
-2493 -76 -234 -133 -499 -167 -776 -21 -175 -25 -612 -6 -792 64 -613 249
-1155 585 -1708 74 -123 107 -150 178 -150 47 0 65 11 620 381 314 209 577
383 583 385 7 3 37 -26 67 -63 191 -236 464 -454 754 -604 159 -82 271 -127
435 -174 569 -164 1176 -110 1715 154 257 126 449 264 650 465 115 116 288
334 307 387 13 36 5 101 -15 132 -8 12 -332 234 -721 492 -662 440 -706 472
-701 495 24 117 28 184 17 260 -39 267 -245 473 -512 512 -384 56 -728 -288
-672 -672 39 -267 245 -473 512 -512 145 -22 311 20 431 107 l51 38 624 -418
c343 -230 624 -422 624 -427 0 -13 -113 -139 -206 -229 -301 -291 -680 -480
-1119 -556 -141 -24 -501 -24 -640 0 -584 102 -1065 397 -1390 854 -46 63 -77
96 -102 108 -77 37 -71 40 -691 -374 -314 -209 -574 -381 -576 -381 -7 0 -89
146 -144 256 -184 367 -301 757 -359 1194 -22 168 -25 637 -5 800 123 990 573
1814 1324 2423 603 489 1333 760 2138 795 158 7 179 10 207 30 66 47 63 1 63
931 l0 841 238 2 238 3 -310 577 c-171 318 -313 578 -316 578 -3 0 -145 -260
-316 -578z" fill="#a91c1c"/>
<path d="M6160 11589 c-606 -83 -1109 -236 -1610 -489 -814 -412 -1501 -1048
-1970 -1826 -495 -819 -730 -1731 -698 -2713 39 -1217 550 -2384 1428 -3261
827 -827 1903 -1319 3084 -1410 196 -15 629 -12 807 5 1034 102 1994 515 2754
1184 734 647 1252 1476 1500 2401 77 285 128 584 155 900 12 135 14 552 5 690
-76 1071 -490 2076 -1188 2877 -779 896 -1856 1476 -3028 1633 -84 11 -155 18
-158 15 -8 -9 -79 -729 -72 -736 3 -4 66 -14 140 -24 713 -91 1432 -398 2008
-856 690 -550 1188 -1311 1418 -2169 234 -876 168 -1826 -185 -2660 -306 -724
-800 -1335 -1445 -1786 -575 -402 -1245 -647 -1970 -720 -226 -23 -696 -15
-915 15 -503 70 -922 201 -1355 425 -660 341 -1203 837 -1605 1468 -98 153
-277 504 -338 660 -144 369 -237 744 -271 1093 -6 61 -14 133 -17 161 -9 90
-5 506 6 629 27 299 80 572 161 844 331 1099 1100 2004 2134 2513 406 199 833
330 1268 387 l132 17 -3 34 c-5 79 -62 648 -67 678 -6 35 -3 35 -105 21z"/>
<path d="M6583 10118 c-812 -34 -1618 -389 -2203 -968 -532 -527 -862 -1188
-977 -1955 -26 -174 -26 -706 0 -885 35 -239 79 -430 147 -630 36 -110 138
-360 146 -360 5 0 667 310 672 314 2 3 -10 35 -26 73 -145 330 -212 663 -212
1048 0 361 59 660 195 997 230 564 662 1038 1205 1321 249 130 516 219 805
269 114 20 165 22 415 23 307 0 408 -11 641 -70 1013 -257 1771 -1083 1950
-2126 30 -176 38 -553 15 -729 -101 -767 -489 -1410 -1116 -1852 -295 -208
-694 -367 -1078 -429 -163 -27 -524 -37 -685 -19 -604 66 -1198 352 -1593 767
l-72 75 -276 -252 -276 -252 31 -39 c42 -53 227 -224 341 -316 518 -415 1150
-671 1813 -733 162 -15 509 -12 665 5 530 59 1042 242 1482 531 157 102 219
149 353 263 654 560 1070 1353 1161 2211 22 212 15 636 -15 825 -61 393 -156
697 -325 1032 -170 341 -364 610 -626 873 -451 452 -976 747 -1600 900 -315
77 -599 103 -957 88z"/>
<path d="M6530 8614 c-403 -50 -817 -251 -1098 -533 -367 -369 -554 -822 -553
-1341 2 -894 629 -1651 1516 -1831 153 -31 445 -38 606 -14 294 42 553 140
785 295 49 33 100 68 113 79 l25 19 -233 291 c-129 160 -235 291 -238 291 -2
0 -24 -15 -49 -34 -65 -50 -226 -130 -319 -159 -126 -39 -218 -50 -377 -44
-176 6 -294 34 -441 105 -125 60 -207 118 -299 208 -155 152 -251 318 -310
534 -20 74 -22 109 -23 270 0 172 2 192 28 284 119 427 454 740 880 821 114
22 307 20 426 -5 376 -76 679 -327 826 -685 47 -113 67 -218 72 -375 4 -131 2
-170 -16 -255 -11 -54 -19 -100 -18 -101 4 -3 702 -204 709 -204 12 0 36 95
58 225 36 212 28 473 -21 704 -152 705 -725 1270 -1447 1428 -103 22 -145 26
-342 28 -124 2 -241 1 -260 -1z"/>
</g>
</svg>
